# xmcd
#
# Track frame offsets:
#	150
#	10531
#	20738
#	29906
#	40734
#	50052
#	61467
#	70353
#	80721
#	88161
#	98526
#	110592
#	121040
#	132983
#	143676
#	155933
#	164994
#	174987
#	187064
#	199184
#
# Disc length: 2824 seconds
#
# Revision: 0
# Processed by: cddbd v1.5.2PL0 Copyright (c) Steve Scherf et al.
# Submitted via: audiograbber 1.83.01
#
DISCID=280b0614
DTITLE=ROCK N ROLL COWBOYS - CD9
DYEAR=2014
DGENRE=Country
TTITLE0=DON GIBSON - DON´T TELL ME YOUR TROUBLES
TTITLE1=JOHNNY CASH - THE WAYS OF A WOMAN IN LOVE
TTITLE2=BOB LUMAN - I LOVE YOU BECAUSE
TTITLE3=LARRY HARVEY - ROLLING HOME
TTITLE4=JOHNNY HORTON - THE GOLDEN ROCKET
TTITLE5=CARL SMITH - HEY JOE
TTITLE6=LONNIE DONEGAN - WUBASH CANNONBALL
TTITLE7=MARVIN RAINWATER - A NEED FOR LOVE
TTITLE8=JIMMY NORTH - LEAVIN´TOWN
TTITLE9=JOHNNY and JACK - SAILOR MAN
TTITLE10=ROD MORRIS - THE GHOST OF CASEY JANES
TTITLE11=HANK SNOW - SPANISH FIREBALL
TTITLE12=DON GIBSON - BAD BAD DAY
TTITLE13=SONNY STEWART - THE NORTHERN LINE
TTITLE14=JOHNNY HORTON - SLEEPED EYED JOHN
TTITLE15=DON LANG - THE CATTLE TRAIN
TTITLE16=DON GIBSON - WHAT ABOUT ME
TTITLE17=WAYNE BUSBICE - GOING BACK TO DIXIE
TTITLE18=ARLIE DUFF - YOU ALL COME
TTITLE19=JIM REEVES - BIMBO
EXTD=
EXTT0=
EXTT1=
EXTT2=
EXTT3=
EXTT4=
EXTT5=
EXTT6=
EXTT7=
EXTT8=
EXTT9=
EXTT10=
EXTT11=
EXTT12=
EXTT13=
EXTT14=
EXTT15=
EXTT16=
EXTT17=
EXTT18=
EXTT19=
PLAYORDER=
